<?xml version="1.0" standalone="no"?>
<!DOCTYPE svg PUBLIC "-//W3C//DTD SVG 20010904//EN"
 "http://www.w3.org/TR/2001/REC-SVG-20010904/DTD/svg10.dtd">
<svg version="1.0" xmlns="http://www.w3.org/2000/svg"
 width="600.000000pt" height="600.000000pt" viewBox="0 0 600.000000 600.000000"
 preserveAspectRatio="xMidYMid meet">

<g transform="translate(0.000000,600.000000) scale(0.100000,-0.100000)"
fill="#000000" stroke="none">
<path d="M2972 5715 c-7 -9 -18 -13 -23 -9 -14 8 -9 -46 6 -65 8 -12 6 -13 -7
-8 -13 4 -15 2 -11 -10 5 -13 2 -15 -13 -9 -30 13 -46 12 -51 -1 -3 -7 0 -13
7 -13 6 0 8 6 4 13 -5 9 -4 9 6 0 21 -20 21 -59 -1 -60 -18 -2 -23 7 -20 34 2
18 -19 26 -25 9 -3 -9 -10 -13 -15 -10 -5 3 -9 0 -9 -5 0 -6 7 -11 16 -11 8 0
12 -4 9 -10 -3 -5 1 -10 10 -10 9 0 14 -4 11 -9 -3 -4 12 -7 33 -5 43 3 61
-16 35 -36 -25 -21 -17 -57 16 -72 40 -17 40 -50 -1 -79 l-30 -21 30 -19 c53
-32 40 -45 -71 -80 -57 -17 -112 -35 -123 -39 -19 -8 -19 -9 3 -9 21 -1 22 -5
22 -71 0 -38 0 -73 0 -77 1 -8 -524 -183 -548 -183 -7 0 -12 -6 -9 -12 3 -10
37 -13 133 -11 71 0 177 2 237 2 84 1 107 4 107 15 0 14 172 178 193 184 7 2
-30 -36 -80 -85 -51 -49 -93 -94 -93 -101 0 -9 63 -12 270 -12 217 0 270 3
270 13 0 7 -40 51 -90 97 -49 46 -88 86 -85 88 8 8 195 -169 195 -184 0 -11
24 -14 123 -15 67 0 173 -3 235 -5 95 -4 112 -3 112 10 0 9 -15 20 -37 26 -21
5 -146 45 -278 89 l-240 78 -3 77 c-3 76 -3 76 23 76 15 0 24 4 20 10 -3 6
-14 10 -23 10 -9 0 -57 12 -105 27 -103 31 -124 52 -77 80 36 21 37 27 6 41
-15 7 -25 21 -28 41 -3 17 -1 31 4 31 17 0 23 2 36 12 18 15 15 59 -5 74 -17
13 -17 14 2 7 18 -6 18 -5 6 10 -17 21 -3 22 27 1 20 -13 22 -13 22 0 0 10 6
13 15 10 9 -4 18 2 22 14 5 12 11 21 16 21 13 1 12 6 -12 33 -13 15 -28 25
-33 22 -4 -3 -8 3 -8 12 0 15 -3 15 -21 -4 -22 -25 -33 -22 -50 11 -7 12 -8
19 -4 15 9 -9 40 20 31 29 -3 4 -6 2 -6 -3 0 -5 -6 2 -13 16 -15 29 -46 36
-65 15z m48 -36 c0 -13 -27 -22 -45 -15 -13 4 -14 10 -5 26 9 16 15 18 30 10
11 -6 20 -15 20 -21z m-3 -59 c3 -11 14 -20 24 -20 14 0 19 -7 19 -25 0 -20
-5 -25 -26 -25 -14 0 -23 -4 -20 -8 2 -4 1 -14 -5 -22 -6 -11 -9 -6 -9 18 0
26 4 32 23 33 l22 0 -22 11 c-13 6 -23 17 -23 25 0 7 -4 13 -10 13 -5 0 -10
-9 -10 -20 0 -14 -7 -20 -22 -21 -23 -2 -23 -2 -2 -6 24 -5 36 -33 23 -54 -6
-10 -9 -8 -9 9 0 15 -6 22 -19 22 -20 0 -35 25 -25 41 3 5 14 9 25 9 12 0 19
7 19 20 0 14 7 20 21 20 12 0 23 -8 26 -20z m89 -31 c10 -17 -13 -36 -27 -22
-12 12 -4 33 11 33 5 0 12 -5 16 -11z m-123 -110 c3 -9 1 -22 -2 -28 -11 -17
-44 11 -36 30 8 21 32 20 38 -2z m62 -18 c3 -9 3 -12 -1 -9 -4 4 -15 3 -25 -3
-17 -8 -19 -6 -19 21 0 28 2 29 20 18 11 -7 22 -19 25 -27z"/>
<path d="M2980 5680 c0 -5 5 -10 10 -10 6 0 10 5 10 10 0 6 -4 10 -10 10 -5 0
-10 -4 -10 -10z"/>
<path d="M3085 5580 c-3 -5 -1 -10 4 -10 6 0 11 5 11 10 0 6 -2 10 -4 10 -3 0
-8 -4 -11 -10z"/>
<path d="M2880 5579 c0 -5 5 -7 10 -4 6 3 10 8 10 11 0 2 -4 4 -10 4 -5 0 -10
-5 -10 -11z"/>
<path d="M2315 4802 c-3 -3 -5 -81 -5 -174 l0 -168 190 0 190 0 0 170 0 170
-152 1 c-84 1 -167 2 -185 4 -18 1 -35 0 -38 -3z m312 -66 c27 -23 28 -28 28
-113 l0 -88 -44 -3 c-86 -6 -91 -2 -91 83 0 82 12 118 44 133 30 15 32 15 63
-12z m-162 -6 c14 -16 20 -42 23 -105 l5 -85 -72 0 -71 0 0 73 c0 90 24 137
68 137 16 0 37 -9 47 -20z"/>
<path d="M3463 4802 l-173 -2 0 -170 0 -170 190 0 190 0 -2 172 c-3 144 -5
171 -18 172 -8 1 -93 0 -187 -2z m-14 -89 c6 -13 11 -57 11 -98 0 -65 -2 -75
-17 -76 -10 0 -29 -3 -43 -5 -14 -3 -35 -2 -47 1 -22 5 -23 11 -23 88 0 85 7
105 44 125 26 13 60 -3 75 -35z m160 11 c17 -22 21 -41 21 -105 l0 -79 -65 0
-65 0 0 83 c0 70 3 87 20 105 28 30 64 28 89 -4z"/>
<path d="M2720 4630 l0 -170 270 0 270 0 0 170 0 170 -270 0 -270 0 0 -170z
m188 110 c28 -27 34 -51 30 -135 l-3 -70 -65 0 -65 0 -3 74 c-3 87 10 126 47
140 36 13 35 13 59 -9z m247 -5 c23 -22 25 -32 25 -115 l0 -91 -67 3 -68 3 0
88 c0 85 1 90 28 113 35 30 52 30 82 -1z"/>
<path d="M2145 4400 c-99 -22 -223 -48 -275 -59 -1223 -259 -1151 -244 -1235
-258 -41 -7 -51 -12 -53 -30 -3 -21 0 -22 85 -25 48 -2 393 -2 766 0 l677 2 0
24 c0 20 41 49 280 197 153 96 279 177 280 180 0 4 -78 7 -172 7 -165 1 -182
-1 -353 -38z"/>
<path d="M2539 4328 c-96 -61 -226 -143 -289 -183 -189 -120 -257 -110 743
-113 l857 -2 0 22 c0 18 -24 38 -118 95 -64 40 -196 123 -292 183 l-174 111
-277 -1 -276 -2 -174 -110z"/>
<path d="M3316 4429 c4 -6 172 -112 499 -314 49 -30 65 -45 65 -62 l0 -23 760
0 c757 0 760 0 760 20 0 23 0 23 -95 40 -38 7 -173 35 -300 62 -126 27 -302
64 -390 83 -358 75 -834 176 -900 191 -51 11 -115 15 -237 13 -92 -1 -165 -6
-162 -10z"/>
<path d="M970 3999 c0 -2 0 -218 -1 -479 0 -472 0 -474 20 -473 12 0 267 1
569 2 l547 1 0 470 0 470 -530 0 c-291 0 -547 3 -567 6 -21 4 -38 5 -38 3z
m379 -119 c48 -24 96 -81 78 -92 -8 -5 -7 -8 4 -8 28 0 40 -97 37 -295 l-3
-180 -180 0 -180 0 -3 185 c-4 217 5 270 54 334 59 77 119 94 193 56z m548 -9
c25 -18 51 -50 67 -83 25 -52 26 -59 26 -243 1 -105 1 -202 0 -217 0 -26 -3
-28 -45 -28 -41 0 -45 2 -45 24 0 14 -4 36 -10 50 -7 19 -6 26 3 26 8 0 7 4
-3 10 -12 8 -12 10 -1 10 10 0 8 5 -6 18 -11 9 -18 24 -15 32 2 8 -7 0 -21
-18 -31 -41 -26 -75 9 -66 26 7 29 -1 18 -55 -5 -25 -11 -30 -30 -29 -25 2
-31 12 -15 22 5 4 11 1 13 -6 3 -7 7 -3 10 9 4 16 2 20 -9 16 -8 -3 -24 -6
-36 -7 -14 -1 -22 -8 -21 -17 1 -14 -12 -17 -78 -18 l-79 -2 3 228 c3 211 5
231 24 268 55 103 159 135 241 76z"/>
<path d="M1340 3825 c0 -8 -9 -19 -21 -25 -17 -10 -21 -8 -26 9 -3 12 -9 21
-14 21 -13 0 -11 -7 8 -37 12 -17 19 -50 20 -92 1 -36 4 -78 6 -93 2 -16 -2
-33 -9 -39 -11 -9 -14 -5 -16 22 0 19 0 43 1 53 1 10 -8 35 -19 54 -14 23 -18
38 -11 45 5 5 7 16 4 24 -14 36 -23 -20 -23 -146 0 -117 2 -132 16 -127 9 3
20 6 25 6 6 0 7 5 3 12 -4 7 -3 8 4 4 25 -15 -2 -81 -33 -81 -16 0 -21 -9 -26
-45 -6 -45 3 -80 22 -80 6 0 6 6 0 19 -15 27 -10 82 7 69 16 -13 45 9 38 29
-4 9 -1 11 6 7 7 -5 8 -3 3 5 -4 7 1 22 13 34 26 30 39 57 36 85 0 12 3 22 7
22 5 0 3 11 -3 25 -6 14 -16 25 -23 25 -12 0 -15 44 -3 55 4 4 3 17 -2 29 -4
13 -4 29 0 36 10 16 3 33 -11 25 -5 -4 -9 -1 -9 5 0 7 8 9 20 5 17 -5 20 -2
20 24 0 17 -2 31 -5 31 -3 0 -5 -7 -5 -15z m-13 -290 c1 -19 -4 -38 -9 -41 -6
-4 -8 2 -3 16 5 15 4 20 -4 16 -8 -5 -8 0 1 18 6 14 12 26 13 26 0 0 1 -16 2
-35z"/>
<path d="M1246 3817 c3 -10 9 -15 12 -12 3 3 0 11 -7 18 -10 9 -11 8 -5 -6z"/>
<path d="M1359 3797 c0 -1 -2 -22 -4 -47 -1 -25 -1 -35 2 -22 2 12 13 28 24
35 10 6 19 15 19 18 0 6 -39 20 -41 16z"/>
<path d="M1324 3456 c-10 -27 16 -126 33 -126 13 0 13 4 -2 27 -10 14 -18 46
-19 70 -1 46 -3 51 -12 29z"/>
<path d="M1813 3756 c9 -13 9 -68 -1 -81 -4 -5 -18 -10 -31 -10 -18 0 -24 -6
-27 -27 -1 -14 4 -35 12 -45 10 -13 14 -14 12 -3 -2 10 5 15 24 15 14 0 30 4
35 9 4 5 3 6 -4 2 -20 -11 -25 13 -9 46 21 40 20 61 -1 85 -10 10 -15 14 -10
9z"/>
<path d="M1741 3708 c-1 -20 14 -24 25 -6 4 6 3 8 -4 4 -5 -3 -13 0 -15 6 -3
8 -6 6 -6 -4z"/>
<path d="M1733 3593 c-10 -98 -10 -103 4 -92 18 15 17 -10 -1 -34 -8 -10 -11
-28 -8 -39 5 -21 5 -21 14 2 11 29 26 12 22 -23 -1 -12 -3 -28 -3 -35 -1 -7
-5 -11 -11 -7 -5 3 -7 12 -3 20 3 9 -1 15 -9 15 -17 0 -42 26 -51 53 -4 9 -2
17 3 17 6 0 10 -8 10 -17 1 -17 1 -17 11 0 14 25 -3 46 -23 29 -9 -7 -14 -38
-15 -94 -1 -58 1 -76 7 -60 11 26 18 29 16 6 0 -9 4 -19 11 -21 7 -3 10 3 6
15 -2 11 1 23 8 28 9 5 11 2 6 -9 -3 -8 1 -21 9 -28 12 -10 18 -9 33 7 15 16
17 29 12 83 -6 58 -5 67 15 88 25 27 22 56 -4 46 -12 -5 -14 -2 -9 11 4 9 3
15 -2 11 -5 -3 -18 6 -28 21 -16 21 -19 23 -20 7z m41 -64 c-9 -15 -21 -2 -27
28 l-5 28 19 -24 c10 -13 16 -27 13 -32z m-73 -146 c-9 -16 -10 -14 -11 12 0
21 3 26 11 18 8 -8 8 -16 0 -30z"/>
<path d="M1820 3560 c8 -5 20 -10 25 -10 6 0 3 5 -5 10 -8 5 -19 10 -25 10 -5
0 -3 -5 5 -10z"/>
<path d="M1814 3482 c3 -5 -1 -15 -9 -22 -18 -15 -21 -100 -3 -100 6 0 8 3 5
7 -4 3 -2 12 3 19 6 6 10 16 9 20 -4 26 2 64 12 64 5 0 7 -5 3 -12 -4 -7 -3
-8 4 -4 16 10 15 14 -9 27 -12 6 -19 7 -15 1z"/>
<path d="M4428 3992 l-548 -2 0 -470 0 -470 545 -1 c300 -1 554 -2 565 -2 20
-1 21 3 21 473 1 456 0 475 -18 475 -10 0 -264 -1 -565 -3z m-175 -106 c42
-18 71 -50 96 -107 18 -40 20 -68 21 -250 0 -112 1 -210 0 -216 0 -9 -16 -13
-45 -13 -42 0 -58 11 -35 25 6 3 9 23 9 43 -1 20 -3 29 -6 19 -3 -11 -11 -16
-19 -13 -16 6 -29 -10 -14 -19 34 -21 -9 -49 -82 -54 -42 -2 -48 0 -48 18 0
11 -4 23 -10 26 -5 3 -10 15 -10 26 0 10 -7 19 -15 19 -11 0 -15 -12 -15 -46
l0 -45 -36 3 -37 3 1 214 c1 210 2 215 28 268 47 97 131 136 217 99z m520 0
c47 -19 94 -78 112 -139 12 -42 15 -96 13 -248 l-3 -194 -35 -3 c-20 -2 -38 2
-45 10 -5 7 -19 15 -30 16 -28 5 -56 42 -49 64 3 10 1 18 -5 18 -6 0 -11 -6
-11 -13 0 -7 -11 -24 -24 -39 -14 -14 -22 -29 -18 -34 4 -4 1 -4 -5 0 -10 6
-10 14 1 41 8 18 11 36 8 40 -4 3 2 3 13 -1 18 -7 18 -6 6 9 -7 9 -18 14 -24
10 -7 -4 -8 0 -4 11 11 28 -3 39 -24 20 -25 -23 -53 -11 -47 21 3 13 1 22 -3
19 -11 -6 -11 7 -1 23 4 7 13 9 21 4 8 -5 10 -14 6 -22 -6 -9 -3 -11 9 -6 10
4 24 -1 35 -12 11 -11 30 -22 43 -26 21 -6 22 -5 5 9 -13 10 -15 16 -7 21 7 4
17 2 23 -4 6 -6 34 -11 63 -11 33 0 54 -5 57 -12 2 -7 6 6 8 30 3 23 1 42 -3
42 -5 0 -8 -9 -8 -20 0 -18 -7 -20 -55 -20 -61 0 -102 27 -90 58 12 31 10 37
-12 36 -13 0 -23 5 -23 13 0 8 4 12 9 9 5 -4 7 2 4 12 -2 10 5 35 17 55 18 30
20 40 10 52 -7 8 -22 15 -33 15 -25 0 -67 -37 -67 -59 1 -9 8 -3 18 14 16 29
17 29 20 7 2 -15 -6 -30 -27 -47 -42 -36 -51 -72 -53 -219 -2 -96 -6 -130 -16
-134 -11 -3 -13 39 -10 225 l3 230 30 49 c21 34 44 56 75 72 51 25 78 27 123
8z m-89 -211 c-4 -8 -8 -15 -10 -15 -2 0 -4 7 -4 15 0 8 4 15 10 15 5 0 7 -7
4 -15z m-24 -35 c0 -5 -4 -10 -10 -10 -5 0 -10 5 -10 10 0 6 5 10 10 10 6 0
10 -4 10 -10z m-60 -90 c0 -5 -5 -10 -11 -10 -5 0 -7 5 -4 10 3 6 8 10 11 10
2 0 4 -4 4 -10z m9 -167 c-14 -17 -22 -8 -33 42 l-8 30 27 -29 c21 -23 24 -31
14 -43z m34 -32 c3 -13 1 -18 -9 -14 -7 2 -10 11 -7 19 7 19 10 18 16 -5z
m-38 -1 c-3 -5 -12 -10 -18 -10 -7 0 -6 4 3 10 19 12 23 12 15 0z m125 -14 c0
-3 -4 -8 -10 -11 -5 -3 -10 -1 -10 4 0 6 5 11 10 11 6 0 10 -2 10 -4z"/>
<path d="M4167 3865 c3 -9 12 -14 20 -11 9 4 13 1 10 -6 -2 -7 -10 -12 -16
-10 -7 1 -9 -3 -6 -9 5 -7 14 -4 28 10 24 23 23 26 -15 35 -22 5 -26 3 -21 -9z"/>
<path d="M4195 3810 c-3 -6 1 -7 9 -4 18 7 21 14 7 14 -6 0 -13 -4 -16 -10z"/>
<path d="M4124 3763 c-21 -20 -32 -69 -12 -57 6 4 8 3 4 -4 -3 -6 -2 -13 3
-16 14 -9 25 14 13 26 -12 12 8 38 28 38 14 0 8 22 -6 27 -6 2 -19 -5 -30 -14z"/>
<path d="M4213 3768 c-14 -18 -13 -52 1 -38 16 16 25 12 19 -9 -3 -10 0 -22 7
-26 15 -9 20 -3 26 29 4 25 -6 32 -38 27 -4 0 -5 6 -2 14 7 18 0 20 -13 3z"/>
<path d="M4125 3639 c2 -11 0 -31 -5 -45 -5 -13 -6 -24 -1 -24 5 0 11 14 15
31 8 44 8 59 -3 59 -6 0 -8 -9 -6 -21z"/>
<path d="M4066 3593 c-3 -4 -6 -11 -6 -17 0 -6 5 -4 10 4 8 13 10 12 10 -3 0
-21 -24 -49 -34 -40 -3 4 -6 -21 -6 -54 0 -44 4 -62 15 -67 27 -10 44 20 38
72 -2 26 -6 49 -8 51 -2 1 0 13 5 26 6 17 5 25 -5 28 -7 3 -16 3 -19 0z"/>
<path d="M4283 3503 c-20 -7 -17 -83 2 -83 9 0 18 6 21 14 8 21 -9 73 -23 69z"/>
<path d="M4790 3770 c0 -6 4 -10 9 -10 5 0 12 -10 14 -22 4 -21 4 -20 6 3 0
16 -5 29 -14 33 -8 3 -15 1 -15 -4z"/>
<path d="M4840 3764 c0 -8 5 -12 10 -9 6 3 10 10 10 16 0 5 -4 9 -10 9 -5 0
-10 -7 -10 -16z"/>
<path d="M4725 3760 c3 -5 8 -10 11 -10 2 0 4 5 4 10 0 6 -5 10 -11 10 -5 0
-7 -4 -4 -10z"/>
<path d="M4837 3722 c-12 -13 -27 -17 -49 -15 -30 3 -31 2 -10 -7 13 -5 34 -8
47 -6 20 4 25 0 28 -22 2 -16 5 -7 6 21 0 26 -1 47 -2 47 -2 0 -11 -8 -20 -18z"/>
<path d="M4726 3704 c-8 -22 -4 -25 11 -9 7 8 9 16 4 19 -5 3 -12 -1 -15 -10z"/>
<path d="M4759 3658 c-1 -7 -1 -20 0 -29 1 -9 -5 -19 -14 -22 -21 -9 -19 -50
4 -66 26 -19 34 -19 37 2 2 13 -2 17 -12 13 -9 -3 -12 -1 -9 4 3 6 12 10 19
10 8 0 12 10 11 25 -4 28 9 33 23 9 8 -15 10 -15 15 0 3 8 2 18 -4 21 -5 4 -6
12 -2 18 4 8 1 8 -9 -1 -13 -11 -16 -10 -14 5 0 12 -7 19 -21 21 -14 2 -23 -2
-24 -10z m25 -33 c-4 -8 -8 -15 -10 -15 -2 0 -4 7 -4 15 0 8 4 15 10 15 5 0 7
-7 4 -15z"/>
<path d="M4851 3593 c0 -29 3 -53 7 -53 4 0 6 17 4 38 -6 64 -10 69 -11 15z"/>
<path d="M4813 3541 c-11 -17 -10 -20 7 -18 12 1 20 9 20 19 0 24 -12 23 -27
-1z"/>
<path d="M4752 3390 c0 -14 2 -19 5 -12 2 6 2 18 0 25 -3 6 -5 1 -5 -13z"/>
<path d="M2135 3520 l0 -470 337 0 337 0 3 353 c3 352 3 352 28 402 13 28 23
55 21 60 -1 6 1 7 5 3 10 -11 35 12 27 25 -3 6 -1 7 5 3 6 -4 25 0 41 9 68 35
176 7 226 -59 52 -69 54 -84 55 -453 l0 -343 315 0 315 0 0 470 0 470 -857 0
-858 0 0 -470z m396 363 c33 -16 82 -77 97 -122 8 -22 12 -112 12 -247 l0
-214 -180 0 -180 0 0 198 c0 225 10 279 63 339 53 60 124 78 188 46z m1062 2
c19 -8 47 -29 62 -47 56 -66 59 -85 60 -318 l0 -215 -50 -3 c-49 -2 -50 -2
-28 15 15 12 20 23 14 31 -6 11 -11 10 -24 -3 -9 -9 -21 -13 -27 -10 -5 3 -10
1 -10 -6 0 -7 -3 -9 -7 -5 -4 3 -6 28 -5 54 l1 47 -15 -47 c-8 -27 -18 -48
-23 -48 -12 0 -31 42 -35 75 -2 18 -10 31 -20 33 -20 4 -21 -5 0 -25 27 -27 2
-92 -31 -79 -13 4 -16 14 -11 34 3 15 3 21 0 15 -3 -7 -14 -13 -25 -13 -10 0
-19 -4 -19 -10 0 -5 8 -7 18 -4 16 5 15 4 -1 -9 -18 -15 -17 -16 5 -23 13 -4
26 -8 30 -9 3 0 9 -3 13 -7 4 -4 -21 -7 -55 -7 l-61 1 3 221 c3 205 5 225 25
262 53 99 131 136 216 100z m-78 -545 c-3 -5 16 -16 42 -24 l48 -15 -58 0
c-44 -1 -56 2 -50 12 4 6 6 20 4 31 -1 11 2 16 8 11 6 -3 9 -10 6 -15z"/>
<path d="M2444 3805 c-3 -8 -4 -20 -1 -27 3 -7 6 -3 6 10 1 12 7 22 15 22 8 0
17 -10 19 -22 4 -20 4 -19 6 5 1 21 -3 27 -19 27 -11 0 -23 -7 -26 -15z"/>
<path d="M2357 3790 c-18 -27 -23 -55 -7 -45 6 3 10 1 10 -4 0 -6 -6 -11 -12
-11 -10 0 -9 -3 1 -9 7 -5 11 -13 8 -18 -3 -5 3 -10 14 -11 10 -1 27 -3 37 -4
14 -2 18 -9 16 -31 -2 -16 0 -26 6 -22 6 3 7 -1 4 -9 -7 -19 -44 -21 -44 -3
-1 6 -8 -1 -16 -16 -8 -15 -19 -25 -24 -22 -5 3 -5 -9 1 -27 12 -42 12 -61 -1
-53 -9 6 -40 -17 -40 -29 0 -3 10 -5 23 -3 23 2 54 34 43 44 -3 3 -1 12 6 20
6 7 8 16 4 20 -3 3 -6 1 -6 -5 0 -7 -5 -12 -11 -12 -8 0 -7 5 1 15 7 9 19 14
25 11 7 -2 18 0 24 5 8 6 8 5 1 -3 -5 -7 -10 -20 -10 -29 0 -10 -7 -25 -16
-34 -15 -15 -15 -18 5 -39 12 -12 18 -26 14 -31 -5 -4 -3 -5 4 -2 17 10 42 -3
36 -19 -3 -8 -12 -14 -20 -14 -8 0 -11 5 -7 12 4 7 3 8 -5 4 -7 -5 -17 6 -26
28 -9 20 -16 36 -18 36 -1 0 -1 -18 1 -39 3 -27 8 -38 17 -35 19 8 27 -48 9
-66 -10 -10 -17 -12 -22 -4 -8 13 -42 15 -42 2 0 -4 -8 -8 -17 -8 -15 0 -16
-2 -3 -10 21 -14 33 -12 24 3 -5 8 -2 8 9 -2 11 -8 17 -9 17 -3 0 6 6 9 14 6
8 -3 17 -1 21 5 3 6 11 11 16 11 6 0 8 -4 4 -9 -3 -5 -1 -12 5 -16 6 -3 10 4
10 18 0 14 7 30 15 37 8 7 13 16 10 20 -3 5 -1 11 4 15 6 3 8 12 4 20 -4 11
-1 13 11 9 9 -3 13 -11 9 -18 -13 -19 -12 -35 3 -47 8 -6 12 -20 9 -30 -3 -9
-1 -20 5 -24 5 -3 10 1 10 9 0 9 5 16 10 16 6 0 10 -6 10 -12 0 -8 14 -14 33
-15 25 -1 33 3 33 16 0 10 -7 24 -15 32 -13 11 -14 11 -9 -3 9 -22 -17 -31
-36 -13 -7 8 -17 11 -21 7 -4 -4 0 5 9 19 9 14 13 29 9 32 -3 4 -1 7 5 7 7 0
12 -9 12 -20 0 -20 1 -20 19 -3 10 10 22 29 26 43 7 24 7 24 -9 5 -14 -18 -15
-18 -16 -2 0 9 -12 40 -26 68 -25 47 -26 52 -11 67 16 15 18 15 32 -3 14 -19
14 -18 3 10 -6 17 -18 37 -26 45 -8 8 -12 9 -8 3 5 -9 0 -13 -13 -13 -14 0
-21 -6 -21 -19 0 -11 -5 -23 -11 -26 -6 -4 -8 -14 -5 -24 4 -9 -7 -1 -24 17
-30 33 -43 65 -17 44 13 -11 28 -6 81 32 21 15 29 16 41 6 20 -16 19 -3 0 17
-12 11 -19 12 -29 4 -10 -9 -15 -8 -20 5 -4 9 -4 19 -1 22 3 3 5 0 5 -6 0 -7
5 -12 10 -12 6 0 10 7 10 16 0 10 5 14 16 10 9 -3 12 -2 9 5 -4 5 -2 16 5 24
8 9 8 15 0 20 -6 3 -8 10 -5 14 2 5 -2 17 -10 27 -11 16 -16 17 -27 6 -11 -11
-10 -12 7 -6 18 7 19 6 5 -11 -8 -10 -10 -16 -4 -12 7 4 11 -5 12 -23 1 -33
-9 -38 -28 -15 -10 13 -15 13 -21 3 -4 -7 -11 -9 -15 -5 -4 3 -1 13 6 22 11
14 10 14 -15 1 -16 -8 -32 -13 -37 -10 -4 3 -5 -3 -1 -13 6 -16 4 -16 -17 2
-13 11 -20 15 -17 8 4 -6 3 -15 -3 -18 -6 -4 -10 -3 -9 2 1 4 -2 19 -8 33 -6
14 -12 34 -14 45 -4 19 -5 19 -22 -5z m127 -73 c11 -10 10 -15 -1 -25 -7 -7
-13 -11 -14 -10 -4 13 -5 48 -2 48 3 0 10 -6 17 -13z m41 -78 c-10 -15 -25
-10 -19 6 4 8 10 12 15 9 5 -3 7 -10 4 -15z m-47 -117 c2 -7 -6 -11 -20 -10
-18 2 -24 8 -24 25 0 21 2 21 20 10 11 -8 22 -19 24 -25z m46 -17 c3 -8 1 -15
-3 -15 -5 0 -11 7 -15 15 -3 8 -1 15 3 15 5 0 11 -7 15 -15z m-8 -32 c-10 -11
-76 -13 -76 -3 0 6 19 10 42 10 23 0 38 -3 34 -7z m51 -18 c9 -24 -1 -27 -15
-5 -8 13 -8 20 -2 20 6 0 13 -7 17 -15z m-40 -33 c-10 -10 -14 -22 -10 -27 5
-4 2 -5 -5 -1 -14 9 2 46 20 46 6 0 4 -8 -5 -18z"/>
<path d="M2530 3741 c0 -6 4 -13 10 -16 6 -3 7 1 4 9 -7 18 -14 21 -14 7z"/>
<path d="M2370 3661 c0 -18 30 -25 43 -11 9 10 9 11 -1 6 -7 -4 -19 -2 -27 4
-11 9 -15 9 -15 1z"/>
<path d="M2346 3652 c-3 -6 -1 -14 5 -17 15 -10 25 3 12 16 -7 7 -13 7 -17 1z"/>
<path d="M2487 3583 c-4 -3 -7 -11 -7 -17 0 -6 5 -5 12 2 6 6 9 14 7 17 -3 3
-9 2 -12 -2z"/>
<path d="M2580 3485 c0 -8 5 -15 10 -15 6 0 10 7 10 15 0 8 -4 15 -10 15 -5 0
-10 -7 -10 -15z"/>
<path d="M2327 3410 c11 -12 19 -16 22 -9 2 8 6 7 12 -2 7 -11 9 -9 9 6 0 16
-7 21 -30 23 -29 2 -30 2 -13 -18z"/>
<path d="M2468 3323 c7 -3 16 -2 19 1 4 3 -2 6 -13 5 -11 0 -14 -3 -6 -6z"/>
<path d="M3517 3803 c-21 -21 9 -103 32 -88 5 2 18 -5 31 -17 l22 -21 -7 23
c-5 15 -4 20 4 16 6 -4 11 -2 11 3 0 6 -6 12 -12 13 -7 0 -17 2 -23 3 -5 2
-18 3 -29 4 -12 1 -16 6 -13 16 4 8 2 17 -4 21 -6 3 -8 12 -5 20 6 15 3 18 -7
7z"/>
<path d="M3452 3788 c-14 -19 -31 -106 -24 -131 3 -12 10 -25 16 -29 8 -6 6
-11 -4 -18 -9 -6 -10 -10 -3 -10 6 0 15 5 18 10 4 6 10 8 14 6 4 -3 13 0 21 6
13 8 12 9 -2 5 -9 -3 -22 0 -28 8 -14 17 0 47 33 70 l22 16 -28 23 c-19 15
-26 28 -21 39 7 20 1 22 -14 5z m32 -64 c4 -10 1 -14 -6 -12 -15 5 -23 28 -10
28 5 0 13 -7 16 -16z"/>
<path d="M3550 3769 c0 -5 5 -7 10 -4 6 3 10 8 10 11 0 2 -4 4 -10 4 -5 0 -10
-5 -10 -11z"/>
<path d="M3523 3644 c-7 -7 -9 -15 -4 -18 5 -3 14 1 20 8 15 18 0 28 -16 10z"/>
<path d="M3556 3631 c-3 -5 1 -11 9 -14 9 -4 12 -1 8 9 -6 16 -10 17 -17 5z"/>
<path d="M3605 3620 c-3 -5 -5 -10 -3 -11 27 -6 39 -5 45 4 3 7 3 9 -2 5 -4
-4 -14 -3 -21 3 -8 7 -14 7 -19 -1z"/>
<path d="M3431 3574 c0 -11 3 -14 6 -6 3 7 2 16 -1 19 -3 4 -6 -2 -5 -13z"/>
<path d="M3559 3578 c-12 -23 -1 -45 27 -59 18 -9 33 -13 32 -10 -2 20 3 31
12 26 5 -3 9 -27 9 -53 -2 -68 0 -79 9 -66 4 7 6 39 4 71 -3 46 -8 62 -24 72
-11 7 -17 8 -13 2 11 -19 -26 -25 -43 -7 -16 16 -16 17 2 10 13 -5 17 -4 12 4
-6 11 -24 16 -27 10z"/>
<path d="M3423 3542 c-14 -2 -23 -10 -22 -20 0 -11 3 -12 6 -4 2 6 11 12 18
12 16 0 28 -28 18 -42 -3 -7 -1 -8 5 -4 13 8 16 36 4 51 -4 6 -17 9 -29 7z"/>
<path d="M3487 3528 c-25 -27 -14 -35 13 -10 12 11 18 22 13 24 -4 3 -16 -4
-26 -14z"/>
<path d="M3525 3500 c3 -5 8 -10 11 -10 2 0 4 5 4 10 0 6 -5 10 -11 10 -5 0
-7 -4 -4 -10z"/>
<path d="M3555 3473 c1 -36 3 -38 31 -35 37 5 46 13 34 32 -8 13 -10 12 -10
-3 0 -25 -32 -18 -36 7 -5 38 -21 37 -19 -1z"/>
<path d="M3447 3438 c8 -46 13 -48 13 -5 0 21 -4 37 -10 37 -5 0 -7 -14 -3
-32z"/>
<path d="M3467 3363 c-4 -3 -7 -11 -7 -17 0 -6 5 -5 12 2 6 6 9 14 7 17 -3 3
-9 2 -12 -2z"/>
<path d="M3120 3101 c0 -6 4 -13 10 -16 6 -3 7 1 4 9 -7 18 -14 21 -14 7z"/>
<path d="M2878 3068 c-6 -14 5 -15 95 -11 56 3 104 8 107 10 3 3 -39 3 -92 1
-60 -2 -99 0 -101 6 -2 6 -6 3 -9 -6z"/>
<path d="M3125 3060 c-19 -8 -19 -9 3 -9 12 -1 22 4 22 9 0 6 -1 10 -2 9 -2 0
-12 -4 -23 -9z"/>
<path d="M580 3005 c0 -21 -5 -24 -42 -27 -39 -3 -43 -6 -46 -30 -3 -26 -7
-28 -48 -28 -29 0 -44 -4 -44 -12 0 -7 5 -89 10 -181 23 -366 101 -668 260
-992 301 -617 836 -1090 1485 -1311 132 -46 221 -68 401 -101 139 -26 168 -27
424 -28 304 0 376 8 635 70 487 116 960 402 1297 782 79 89 103 119 176 217
49 66 180 285 217 361 164 346 256 707 265 1040 1 50 3 104 4 120 1 28 -1 30
-44 35 -40 4 -45 8 -48 33 -3 24 -7 27 -43 27 -35 0 -39 3 -39 25 l0 25 -2410
0 -2410 0 0 -25z m-86 -167 c3 -18 6 -67 7 -108 5 -270 102 -641 239 -925 127
-262 215 -393 408 -609 368 -413 879 -688 1462 -787 226 -39 571 -36 815 6
750 130 1414 609 1777 1283 27 50 52 92 54 92 11 0 -105 -212 -166 -305 -188
-284 -430 -529 -705 -712 -424 -282 -889 -424 -1395 -425 -421 -1 -798 90
-1164 280 -243 126 -425 260 -627 462 -403 402 -659 936 -718 1495 -19 185
-22 285 -7 285 8 0 16 -15 20 -32z m596 -48 c0 -64 3 -80 15 -80 13 0 15 -24
15 -160 l0 -160 80 0 c57 0 80 4 81 13 1 6 1 78 1 159 l-1 146 62 4 c34 2 72
2 85 -1 l23 -4 -3 -188 -3 -189 35 -1 c91 -1 150 -54 150 -135 0 -93 -71 -127
-251 -122 l-94 3 0 93 1 92 -83 0 -83 0 0 -95 0 -95 -80 0 -80 0 0 320 0 320
28 1 c15 1 34 1 43 0 8 -1 23 7 33 18 18 19 17 21 -18 52 l-37 32 27 28 c45
47 54 39 54 -51z m4416 -40 c-6 -113 -30 -310 -40 -341 -3 -8 -7 -27 -9 -44
-10 -63 -105 -373 -118 -380 -8 -6 5 42 22 80 5 11 15 45 23 75 8 30 20 72 26
94 6 21 15 59 20 85 4 25 15 82 23 126 14 69 41 356 36 381 -4 23 2 44 13 44
8 0 9 -32 4 -120z m-3300 -45 c48 -8 109 -58 132 -107 19 -39 21 -63 23 -248
2 -295 4 -280 -25 -280 -14 0 -28 -5 -31 -10 -4 -6 -12 -7 -18 -3 -6 4 -27 9
-47 13 l-35 5 -3 77 -3 77 -82 3 -82 3 -5 160 c-5 162 -10 185 -36 185 -26 0
-34 -49 -33 -212 0 -88 -3 -163 -6 -167 -4 -3 -50 -6 -103 -6 -113 1 -163 19
-199 74 -21 31 -23 46 -23 160 0 114 2 131 24 171 30 58 88 99 152 108 54 9
351 6 400 -3z m903 -21 c51 -28 101 -90 101 -126 0 -12 5 -30 10 -38 7 -12 10
-8 10 15 0 17 7 43 15 59 19 36 19 37 -2 29 -10 -3 -15 -3 -11 1 3 4 14 9 25
11 10 1 17 8 15 14 -1 6 1 10 5 9 5 -1 30 11 58 27 43 26 58 29 122 28 54 -1
81 -6 104 -21 l32 -20 29 21 c43 32 168 30 228 -4 59 -32 110 -100 110 -145 0
-21 4 -33 10 -29 6 3 10 14 10 24 0 29 60 111 101 137 118 74 282 42 361 -71
21 -30 31 -62 41 -125 8 -56 16 -85 25 -84 6 1 34 2 60 3 l49 1 2 57 c1 31 8
74 16 95 12 35 11 39 -3 36 -11 -2 -17 -13 -17 -30 -1 -33 -9 -42 -29 -35 -10
4 -14 22 -14 64 0 32 2 66 4 76 8 27 31 20 38 -13 4 -25 10 -30 33 -30 17 0
33 8 40 19 7 11 30 29 53 42 22 13 35 26 30 29 -18 11 183 3 213 -9 15 -6 50
-33 77 -60 69 -69 79 -111 79 -319 0 -92 0 -180 0 -195 1 -27 3 -28 34 -22 40
8 67 38 67 75 0 30 18 43 40 30 20 -12 6 -91 -20 -112 -31 -25 -86 -37 -155
-34 -33 2 -77 4 -97 5 l-38 1 0 214 c0 204 -1 214 -22 246 -13 19 -26 32 -29
29 -3 -2 -13 2 -22 10 -22 18 -64 1 -92 -37 -18 -25 -20 -45 -23 -244 -3 -197
-5 -218 -20 -218 -9 -1 -49 -2 -89 -3 -45 -1 -69 1 -63 8 6 5 10 35 10 67 0
50 -4 62 -29 88 -21 22 -37 30 -64 30 -33 0 -36 2 -39 33 -2 17 -3 -24 -3 -93
l0 -125 -82 -3 -83 -3 0 215 0 214 -26 31 c-38 45 -60 55 -92 41 -15 -6 -36
-23 -47 -38 -18 -25 -20 -45 -23 -243 -3 -247 5 -227 -99 -221 l-63 4 -1 156
c-1 87 0 167 1 180 1 21 -2 22 -83 22 l-85 0 -4 57 c-4 43 -10 61 -28 75 -25
20 -45 24 -34 6 5 -7 3 -8 -5 -4 -7 5 -21 0 -32 -10 -15 -13 -19 -30 -19 -81
0 -66 0 -66 50 -65 70 3 68 9 66 -165 -1 -87 2 -167 8 -178 8 -17 7 -18 -5 -8
-8 7 -44 11 -87 10 l-72 -2 0 113 0 112 -65 0 -65 0 0 122 c0 111 -2 124 -22
145 -27 29 -43 29 -73 -2 -20 -19 -25 -34 -25 -75 l0 -51 -84 3 -84 3 -1 -90
c-2 -112 -20 -171 -69 -217 -49 -48 -90 -57 -252 -57 -156 0 -191 8 -242 57
-62 59 -71 96 -66 284 3 156 5 165 30 201 59 86 115 104 321 99 106 -2 125 -5
166 -28z m-2354 5 c-3 -12 -7 -24 -11 -28 -4 -3 -4 2 -1 12 7 18 -2 22 -19 10
-5 -5 -1 0 9 10 25 22 27 22 22 -4z m63 -22 c-6 -11 -13 -15 -17 -10 -3 6 -13
13 -21 16 -11 4 -11 6 4 6 12 1 16 6 12 16 -4 12 -2 13 14 3 15 -9 16 -16 8
-31z m-58 -82 c0 -12 -20 6 -31 28 l-11 22 21 -22 c11 -12 21 -25 21 -28z
m4420 35 c0 -5 -2 -10 -4 -10 -3 0 -8 5 -11 10 -3 6 -1 10 4 10 6 0 11 -4 11
-10z m-4400 -10 c0 -5 -7 -7 -15 -4 -8 4 -15 8 -15 10 0 2 7 4 15 4 8 0 15 -4
15 -10z m74 -39 c3 -5 -10 -11 -29 -13 -36 -4 -36 6 0 15 11 3 21 5 22 6 1 0
4 -3 7 -8z m-87 -7 c-3 -3 -12 -4 -19 -1 -8 3 -5 6 6 6 11 1 17 -2 13 -5z
m434 -363 c-7 -5 -11 -13 -7 -19 3 -6 1 -14 -5 -18 -8 -4 -9 -3 -5 4 4 7 3 12
-2 12 -6 0 -13 -7 -16 -16 -4 -9 -9 -14 -13 -10 -8 8 36 56 51 56 6 0 5 -4 -3
-9z m1075 -153 c4 -7 3 -8 -4 -4 -7 4 -12 1 -12 -8 0 -16 -37 -46 -57 -46 -24
0 -13 19 24 45 44 29 40 28 49 13z m2288 -33 c-9 -14 -20 -25 -25 -25 -5 0 1
11 13 25 12 14 23 25 25 25 2 0 -4 -11 -13 -25z m-3150 -67 c82 2 153 5 158 8
4 3 8 0 8 -6 0 -6 5 -8 12 -4 16 10 48 13 52 5 5 -8 520 -6 532 2 6 3 15 2 22
-2 7 -4 31 -5 54 -2 22 3 85 4 139 1 55 -3 100 -2 102 1 1 3 30 3 65 -1 34 -3
62 -3 62 0 0 3 96 4 213 3 116 -2 257 -2 312 -2 55 1 105 1 110 0 92 -6 612
-4 608 3 -4 5 -1 6 5 2 6 -4 111 -9 233 -11 156 -3 225 -8 236 -16 10 -9 14
-27 11 -61 -2 -34 1 -48 10 -48 7 0 5 -7 -7 -19 -17 -17 -35 -19 -133 -20
-146 -1 -101 -1 -510 2 -210 1 -354 -2 -350 -7 3 -5 -1 -6 -8 -1 -7 4 -148 9
-314 10 -276 2 -402 6 -621 20 -44 3 -129 8 -190 10 -60 3 -182 9 -270 15 -88
5 -257 14 -375 20 -837 41 -821 40 -773 79 20 16 43 18 218 17 108 0 202 2
208 6 6 4 16 4 21 0 6 -3 78 -5 160 -4z m3060 -21 c-2 -7 -14 -19 -27 -26 -21
-13 -21 -12 2 13 27 29 33 32 25 13z m-74 -32 c4 3 13 -2 20 -10 7 -8 23 -15
37 -15 13 0 26 -6 29 -14 3 -8 28 -17 60 -21 44 -5 59 -3 74 10 14 13 22 14
42 4 21 -9 33 -7 76 15 69 35 120 33 250 -9 59 -19 134 -41 167 -49 l60 -14
-80 -2 c-44 -1 -109 -3 -145 -4 -49 -1 -68 2 -77 14 -10 13 -14 13 -40 0 -22
-12 -54 -15 -143 -13 -141 4 -298 3 -325 -1 -15 -2 -21 4 -25 23 -6 29 1 112
7 93 3 -6 8 -10 13 -7z m390 -190 c0 -29 -25 -67 -54 -82 -17 -9 -63 -17 -110
-19 -85 -3 -80 1 17 11 66 7 97 32 97 77 0 23 4 28 25 28 15 0 25 -6 25 -15z
m-1546 -62 c-4 -23 -2 -25 21 -19 32 8 65 -9 65 -34 0 -13 11 -22 36 -29 48
-13 74 -38 74 -70 0 -46 -34 -71 -94 -71 -34 0 -36 -2 -37 -35 -3 -78 -4 -80
-26 -83 -22 -3 -23 0 -23 57 0 59 -1 61 -25 61 -64 0 -110 53 -86 98 11 21 87
56 110 50 8 -2 16 3 18 11 4 10 -3 12 -35 6 -26 -4 -42 -2 -47 5 -11 18 4 60
21 60 10 0 14 6 11 14 -4 10 -1 13 8 10 8 -4 12 -15 9 -31z m981 10 c7 -9 28
-22 46 -28 27 -9 35 -18 37 -41 2 -20 -4 -36 -18 -49 -25 -23 -25 -31 0 -38
35 -9 33 -34 -10 -112 -43 -78 -63 -96 -82 -77 -8 8 1 29 30 75 45 67 52 93
26 83 -35 -14 -65 -18 -81 -12 -13 5 -6 16 35 54 57 53 68 88 30 94 -35 6 -66
-12 -89 -49 -25 -40 -59 -45 -59 -9 0 28 51 76 81 76 11 0 18 4 15 9 -3 4 7 6
22 4 l27 -5 -25 21 c-15 12 -19 21 -11 21 8 0 19 -8 26 -17z m910 -33 c-16
-17 -32 -30 -36 -30 -4 0 7 15 24 33 18 18 34 31 36 30 3 -2 -8 -17 -24 -33z
m-1154 -19 c4 -34 14 -51 38 -72 38 -31 50 -74 51 -167 0 -55 -2 -63 -17 -60
-14 3 -20 18 -25 78 -10 92 -30 125 -79 125 -27 0 -37 -6 -56 -35 -40 -61 -45
-65 -59 -46 -22 31 -1 62 94 137 7 6 10 20 6 34 -8 34 2 57 23 53 13 -2 20
-16 24 -47z m-1280 16 c44 -30 60 -90 57 -217 -3 -87 -5 -95 -23 -95 -19 0
-20 7 -22 107 -2 146 -22 199 -67 182 -34 -13 -68 -182 -47 -235 10 -28 5 -42
-20 -51 -29 -11 -34 9 -27 109 7 111 19 159 49 197 25 32 56 33 100 3z m-1043
-59 l-3 -73 68 -3 67 -3 0 76 c0 61 3 75 16 75 13 0 15 -21 12 -162 -3 -137
-5 -163 -18 -163 -12 0 -16 16 -18 73 l-3 74 -42 -6 c-23 -3 -52 -5 -64 -5
-20 -1 -22 -7 -25 -68 -2 -39 -7 -67 -13 -66 -17 3 -20 38 -17 183 3 133 4
140 23 140 19 0 21 -5 17 -72z m318 62 c8 -8 39 -7 103 0 159 20 167 12 173
-177 4 -110 2 -133 -10 -138 -23 -9 -25 -1 -23 75 l2 70 -38 -6 c-33 -5 -42
-2 -68 25 -22 24 -29 42 -30 74 -2 60 -2 59 -35 42 -24 -13 -30 -22 -30 -49 0
-19 -9 -45 -21 -60 -27 -34 -98 -37 -129 -6 -26 26 -26 85 0 128 17 27 26 32
58 32 21 0 43 -5 48 -10z m429 -40 l0 -45 55 0 55 0 3 -118 c3 -118 3 -118
-20 -115 -22 3 -23 6 -20 100 l3 97 -52 3 c-50 3 -55 6 -76 46 -1 2 -15 -7
-32 -19 -33 -24 -60 -16 -48 15 7 19 67 57 78 50 4 -2 11 5 14 16 4 13 13 20
23 18 13 -3 17 -14 17 -48z m422 -22 c-4 -40 -9 -106 -13 -145 l-7 -73 44 -1
c93 -2 104 -4 104 -19 0 -12 -16 -15 -87 -15 -47 0 -88 2 -91 5 -8 9 11 265
22 293 6 15 16 27 22 27 9 0 10 -20 6 -72z m811 66 c25 -7 52 -51 52 -86 0
-13 -9 -38 -20 -56 -22 -35 -24 -43 -12 -41 37 6 63 -3 72 -27 6 -15 17 -25
27 -23 37 3 53 -1 53 -16 0 -11 -11 -15 -40 -15 -36 0 -40 -2 -40 -25 0 -14
-4 -26 -10 -26 -32 -5 -35 -1 -40 46 l-5 50 -64 -3 c-97 -6 -111 -13 -111 -62
0 -29 -4 -40 -15 -40 -21 0 -36 44 -30 82 8 44 12 48 51 48 l34 0 -30 42 c-33
45 -36 70 -16 107 24 43 82 61 144 45z m1282 -218 c0 -2 -8 -10 -17 -17 -16
-13 -17 -12 -4 4 13 16 21 21 21 13z m-1672 -177 c3 -11 2 -12 -6 0 -6 8 -12
9 -16 3 -3 -5 -17 -9 -32 -9 -17 0 -22 2 -13 7 6 5 18 6 26 3 7 -3 13 0 13 7
0 16 23 7 28 -11z m-898 -45 c0 -2 -7 -4 -15 -4 -8 0 -15 4 -15 10 0 5 7 7 15
4 8 -4 15 -8 15 -10z m847 -20 c-3 -3 -12 -4 -19 -1 -8 3 -5 6 6 6 11 1 17 -2
13 -5z m978 -23 c-6 -5 -25 10 -25 20 0 5 6 4 14 -3 8 -7 12 -15 11 -17z
m-792 2 c-7 -2 -19 -2 -25 0 -7 3 -2 5 12 5 14 0 19 -2 13 -5z m-105 -27 c9
-9 -41 -6 -63 4 -15 7 -10 8 19 5 21 -2 41 -6 44 -9z m-1016 -115 c12 -16 31
-44 41 -62 l19 -34 29 63 c27 61 50 77 57 40 2 -9 -20 -76 -48 -149 -57 -151
-62 -161 -78 -167 -23 -7 -24 29 -2 83 32 78 29 97 -24 165 -25 33 -46 67 -46
75 0 24 26 17 52 -14z m1199 17 c4 -77 12 -94 49 -101 85 -18 119 -116 59
-176 -37 -37 -102 -57 -136 -42 -23 10 -23 13 -23 164 0 85 3 157 7 160 11 12
43 8 44 -5z m-316 -18 c0 -10 -13 -16 -42 -18 l-43 -3 -1 -77 c-2 -130 -12
-196 -30 -200 -25 -5 -30 30 -22 161 l6 117 -36 0 c-20 0 -39 5 -42 10 -15 24
10 31 108 28 83 -2 102 -6 102 -18z m-509 -83 c89 -81 33 -226 -86 -227 -66 0
-110 53 -110 133 0 51 23 86 72 110 51 25 84 21 124 -16z m114 -29 c0 -63 15
-122 36 -143 21 -21 31 -19 51 11 13 21 17 46 16 106 -2 76 -1 79 20 76 21 -3
22 -7 21 -95 -1 -77 -5 -97 -24 -122 -17 -24 -29 -31 -56 -31 -67 0 -104 66
-104 188 0 55 2 62 20 62 17 0 20 -7 20 -52z m480 -17 c0 -80 11 -115 39 -131
34 -18 56 29 56 120 0 70 1 75 23 78 21 3 22 1 22 -82 0 -123 -21 -166 -80
-166 -71 0 -100 45 -108 167 l-5 83 27 0 c26 0 26 -1 26 -69z m599 38 c16 -30
9 -71 -17 -97 -13 -13 -33 -18 -75 -17 -47 0 -57 -3 -57 -16 0 -31 29 -44 97
-41 50 3 64 0 61 -10 -14 -41 -126 -48 -176 -11 -31 23 -48 77 -38 118 4 16
25 46 46 67 36 37 42 39 92 36 44 -3 55 -7 67 -29z"/>
<path d="M1474 2216 c-8 -22 3 -49 19 -43 6 2 12 14 12 27 0 27 -22 39 -31 16z"/>
<path d="M1807 2552 c-13 -14 -17 -38 -17 -108 1 -85 12 -124 36 -124 5 0 9
56 9 125 0 69 -3 125 -6 125 -3 0 -13 -8 -22 -18z"/>
<path d="M2155 2455 c0 -63 3 -115 6 -115 3 0 13 8 22 18 34 38 16 212 -21
212 -4 0 -7 -52 -7 -115z"/>
<path d="M2767 2553 c-12 -14 -16 -44 -16 -148 -1 -133 10 -195 34 -195 27 0
35 40 35 180 0 167 -13 207 -53 163z"/>
<path d="M3000 2551 c-16 -32 -13 -303 4 -327 14 -18 15 -18 33 -1 16 16 18
36 18 166 0 111 -3 152 -14 164 -18 22 -28 21 -41 -2z"/>
<path d="M4595 2240 c10 -11 20 -20 22 -20 1 0 3 9 3 20 0 14 -7 20 -22 20
-20 0 -21 -1 -3 -20z"/>
<path d="M2235 2030 c-3 -5 -1 -10 4 -10 6 0 11 5 11 10 0 6 -2 10 -4 10 -3 0
-8 -4 -11 -10z"/>
<path d="M3224 1530 c-42 -17 -40 -64 3 -75 34 -8 45 5 41 45 -3 37 -12 43
-44 30z"/>
<path d="M3327 1523 c-4 -3 -7 -24 -7 -45 0 -28 4 -38 16 -38 29 0 54 21 54
45 0 31 -44 58 -63 38z"/>
<path d="M1902 1587 c-34 -40 -20 -107 23 -107 32 0 55 25 55 60 0 48 -51 79
-78 47z"/>
<path d="M2129 1579 c-16 -31 -3 -88 24 -98 37 -14 57 4 57 52 0 24 -5 48 -12
55 -19 19 -56 14 -69 -9z"/>
<path d="M3560 1587 c-33 -16 -37 -61 -10 -104 11 -18 24 -33 29 -33 19 0 61
62 61 90 0 29 -22 60 -43 60 -7 0 -23 -6 -37 -13z"/>
<path d="M3470 873 c0 -5 -3 -38 -6 -75 -6 -60 -5 -68 10 -68 25 0 76 54 76
80 0 24 -42 70 -65 70 -8 0 -15 -3 -15 -7z"/>
<path d="M2526 881 c-26 -29 -32 -95 -12 -126 21 -33 41 -32 77 4 31 31 39 83
19 122 -14 25 -61 25 -84 0z"/>
<path d="M3721 884 c-17 -7 -31 -20 -31 -29 0 -13 9 -15 48 -13 39 2 48 7 50
24 4 28 -25 36 -67 18z"/>
</g>
</svg>
